<svg xmlns="http://www.w3.org/2000/svg" width="1726" height="7"><path fill-rule="evenodd" fill="#FFF" d="M1724.531 7V0H1726v7h-1.469zm-4.437-7h1.5v7h-1.5V0zm-4.407 0h1.469v7h-1.469V0zm-4.437 0h1.5v7h-1.5V0zm-4.406 0h1.468v7h-1.468V0zm-4.438 0h1.5v7h-1.5V0zM1698 0h1.469v7H1698V0zm-4.438 0h1.5v7h-1.5V0zm-4.406 0h1.469v7h-1.469V0zm-4.437 0h1.5v7h-1.5V0zm-4.407 0h1.469v7h-1.469V0zm-4.437 0h1.5v7h-1.5V0zm-4.406 0h1.468v7h-1.468V0zm-4.438 0h1.5v7h-1.5V0zm-4.406 0h1.469v7h-1.469V0zm-4.438 0h1.5v7h-1.5V0zm-4.406 0h1.469v7h-1.469V0zm-4.437 0h1.5v7h-1.5V0zm-4.407 0h1.469v7h-1.469V0zm-4.437 0h1.5v7h-1.5V0zm-4.406 0h1.468v7h-1.468V0zm-4.438 0h1.5v7h-1.5V0zm-4.406 0h1.469v7h-1.469V0zm-4.438 0h1.5v7h-1.5V0zm-4.406 0h1.469v7h-1.469V0zm-4.437 0h1.5v7h-1.5V0zm-4.407 0h1.469v7h-1.469V0zm-4.437 0h1.5v7h-1.5V0zm-4.406 0h1.468v7h-1.468V0zm-4.438 0h1.5v7h-1.5V0zm-4.406 0h1.469v7h-1.469V0zm-4.438 0h1.5v7h-1.5V0zm-4.406 0h1.469v7h-1.469V0zm-4.437 0h1.5v7h-1.5V0zm-4.407 0h1.469v7h-1.469V0zm-4.437 0h1.5v7h-1.5V0zm-4.406 0h1.468v7h-1.468V0zm-4.438 0h1.5v7h-1.5V0zm-4.406 0h1.469v7h-1.469V0zm-4.438 0h1.5v7h-1.5V0zm-4.406 0h1.469v7h-1.469V0zm-4.437 0h1.5v7h-1.5V0zm-4.407 0h1.469v7h-1.469V0zm-4.437 0h1.5v7h-1.5V0zm-4.406 0h1.468v7h-1.468V0zm-4.438 0h1.5v7h-1.5V0zm-4.406 0h1.469v7h-1.469V0zm-4.438 0h1.5v7h-1.5V0zm-4.406 0h1.469v7h-1.469V0zm-4.437 0h1.5v7h-1.5V0zm-4.407 0h1.469v7h-1.469V0zM1499 0h1.5v7h-1.5V0zm-4.406 0h1.468v7h-1.468V0zm-4.438 0h1.5v7h-1.5V0zm-4.406 0h1.469v7h-1.469V0zm-4.438 0h1.5v7h-1.5V0zm-4.406 0h1.469v7h-1.469V0zm-4.437 0h1.5v7h-1.5V0zm-4.407 0h1.469v7h-1.469V0zm-4.437 0h1.5v7h-1.5V0zm-4.406 0h1.468v7h-1.468V0zm-4.438 0h1.5v7h-1.5V0zm-4.406 0h1.469v7h-1.469V0zm-4.438 0h1.5v7h-1.5V0zm-4.406 0H1443v7h-1.469V0zm-4.437 0h1.5v7h-1.5V0zm-4.407 0h1.469v7h-1.469V0zm-4.437 0h1.5v7h-1.5V0zm-4.406 0h1.468v7h-1.468V0zm-4.438 0h1.5v7h-1.5V0zM1415 0h1.469v7H1415V0zm-4.438 0h1.5v7h-1.5V0zm-4.406 0h1.469v7h-1.469V0zm-4.437 0h1.5v7h-1.5V0zm-4.407 0h1.469v7h-1.469V0zm-4.437 0h1.5v7h-1.5V0zm-4.406 0h1.468v7h-1.468V0zm-4.438 0h1.5v7h-1.5V0zm-4.406 0h1.469v7h-1.469V0zm-4.438 0h1.5v7h-1.5V0zm-4.406 0h1.469v7h-1.469V0zm-4.437 0h1.5v7h-1.5V0zm-4.407 0h1.469v7h-1.469V0zm-4.437 0h1.5v7h-1.5V0zm-4.406 0h1.468v7h-1.468V0zm-4.438 0h1.5v7h-1.5V0zm-4.406 0h1.469v7h-1.469V0zm-4.438 0h1.5v7h-1.5V0zm-4.406 0h1.469v7h-1.469V0zm-4.437 0h1.5v7h-1.5V0zm-4.407 0h1.469v7h-1.469V0zm-4.437 0h1.5v7h-1.5V0zm-4.406 0h1.468v7h-1.468V0zm-4.438 0h1.5v7h-1.5V0zm-4.406 0h1.469v7h-1.469V0zm-4.438 0h1.5v7h-1.5V0zm-4.406 0h1.469v7h-1.469V0zm-4.437 0h1.5v7h-1.5V0zm-4.407 0h1.469v7h-1.469V0zm-4.437 0h1.5v7h-1.5V0zm-4.406 0h1.468v7h-1.468V0zm-4.438 0h1.5v7h-1.5V0zm-4.406 0h1.469v7h-1.469V0zm-4.438 0h1.5v7h-1.5V0zm-4.406 0h1.469v7h-1.469V0zm-4.437 0h1.5v7h-1.5V0zm-4.407 0h1.469v7h-1.469V0zm-4.437 0h1.5v7h-1.5V0zm-4.406 0h1.468v7h-1.468V0zm-4.438 0h1.5v7h-1.5V0zm-4.406 0h1.469v7h-1.469V0zm-4.438 0h1.5v7h-1.5V0zm-4.406 0h1.469v7h-1.469V0zm-4.437 0h1.5v7h-1.5V0zm-4.407 0h1.469v7h-1.469V0zM1216 0h1.5v7h-1.5V0zm-4.406 0h1.468v7h-1.468V0zm-4.438 0h1.5v7h-1.5V0zm-4.406 0h1.469v7h-1.469V0zm-4.438 0h1.5v7h-1.5V0zm-4.406 0h1.469v7h-1.469V0zm-4.437 0h1.5v7h-1.5V0zm-4.407 0h1.469v7h-1.469V0zm-4.437 0h1.5v7h-1.5V0zm-4.406 0h1.468v7h-1.468V0zm-4.438 0h1.5v7h-1.5V0zm-4.406 0h1.469v7h-1.469V0zm-4.438 0h1.5v7h-1.5V0zm-4.406 0H1160v7h-1.469V0zm-4.437 0h1.5v7h-1.5V0zm-4.406 0h1.468v7h-1.468V0zm-4.438 0h1.5v7h-1.5V0zm-4.406 0h1.468v7h-1.468V0zm-4.438 0h1.5v7h-1.5V0zM1132 0h1.469v7H1132V0zm-4.438 0h1.501v7h-1.501V0zm-4.406 0h1.469v7h-1.469V0zm-4.437 0h1.5v7h-1.5V0zm-4.407 0h1.469v7h-1.469V0zm-4.437 0h1.5v7h-1.5V0zm-4.406 0h1.468v7h-1.468V0zm-4.438 0h1.5v7h-1.5V0zm-4.406 0h1.469v7h-1.469V0zm-4.438 0h1.5v7h-1.5V0zm-4.406 0h1.469v7h-1.469V0zm-4.437 0h1.5v7h-1.5V0zm-4.407 0h1.469v7h-1.469V0zm-4.437 0h1.5v7h-1.5V0zm-4.406 0h1.468v7h-1.468V0zm-4.438 0h1.5v7h-1.5V0zm-4.406 0h1.469v7h-1.469V0zm-4.438 0h1.5v7h-1.5V0zm-4.406 0h1.469v7h-1.469V0zm-4.437 0h1.5v7h-1.5V0zm-4.407 0h1.469v7h-1.469V0zm-4.437 0h1.5v7h-1.5V0zm-4.406 0h1.468v7h-1.468V0zm-4.438 0h1.5v7h-1.5V0zm-4.406 0h1.469v7h-1.469V0zm-4.438 0h1.5v7h-1.5V0zm-4.406 0h1.469v7h-1.469V0zm-4.437 0h1.5v7h-1.5V0zm-4.407 0h1.469v7h-1.469V0zm-4.437 0h1.5v7h-1.5V0zm-4.406 0h1.468v7h-1.468V0zm-4.438 0h1.5v7h-1.5V0zM990.5 0h1.469v7H990.5V0zm-4.438 0h1.5v7h-1.5V0zm-4.406 0h1.469v7h-1.469V0zm-4.437 0h1.5v7h-1.5V0zm-4.407 0h1.469v7h-1.469V0zm-4.437 0h1.5v7h-1.5V0zm-4.406 0h1.468v7h-1.468V0zm-4.438 0h1.5v7h-1.5V0zm-4.406 0h1.469v7h-1.469V0zm-4.438 0h1.5v7h-1.5V0zm-4.406 0h1.469v7h-1.469V0zm-4.437 0h1.5v7h-1.5V0zm-4.407 0h1.469v7h-1.469V0zM933 0h1.5v7H933V0zm-4.406 0h1.468v7h-1.468V0zm-4.438 0h1.5v7h-1.5V0zm-4.406 0h1.469v7h-1.469V0zm-4.437 0h1.499v7h-1.499V0zm-4.407 0h1.469v7h-1.469V0zm-4.437 0h1.5v7h-1.5V0zm-4.407 0h1.469v7h-1.469V0zm-4.437 0h1.5v7h-1.5V0zm-4.406 0h1.469v7h-1.469V0zm-4.438 0h1.5v7h-1.5V0zm-4.406 0h1.469v7h-1.469V0zm-4.438 0h1.5v7h-1.5V0zm-4.406 0H877v7h-1.469V0zm-4.437 0h1.5v7h-1.5V0zm-4.407 0h1.469v7h-1.469V0zm-4.437 0h1.5v7h-1.5V0zm-4.406 0h1.468v7h-1.468V0zm-4.438 0h1.5v7h-1.5V0zM849 0h1.469v7H849V0zm-4.438 0h1.5v7h-1.5V0zm-4.406 0h1.469v7h-1.469V0zm-4.437 0h1.5v7h-1.5V0zm-4.407 0h1.469v7h-1.469V0zm-4.437 0h1.5v7h-1.5V0zm-4.406 0h1.468v7h-1.468V0zm-4.438 0h1.5v7h-1.5V0zm-4.406 0h1.469v7h-1.469V0zm-4.438 0h1.5v7h-1.5V0zm-4.406 0h1.469v7h-1.469V0zm-4.437 0h1.5v7h-1.5V0zm-4.407 0h1.469v7h-1.469V0zM791.5 0h1.5v7h-1.5V0zm-4.406 0h1.468v7h-1.468V0zm-4.438 0h1.5v7h-1.5V0zm-4.406 0h1.469v7h-1.469V0zm-4.438 0h1.5v7h-1.5V0zm-4.406 0h1.469v7h-1.469V0zm-4.437 0h1.5v7h-1.5V0zm-4.407 0h1.469v7h-1.469V0zm-4.437 0h1.5v7h-1.5V0zm-4.406 0h1.468v7h-1.468V0zm-4.438 0h1.5v7h-1.5V0zm-4.406 0h1.469v7h-1.469V0zm-4.438 0h1.5v7h-1.5V0zm-4.406 0h1.469v7h-1.469V0zm-4.437 0h1.5v7h-1.5V0zm-4.407 0h1.469v7h-1.469V0zm-4.437 0h1.5v7h-1.5V0zm-4.406 0h1.468v7h-1.468V0zm-4.438 0h1.5v7h-1.5V0zM707.5 0h1.469v7H707.5V0zm-4.438 0h1.5v7h-1.5V0zm-4.406 0h1.469v7h-1.469V0zm-4.437 0h1.5v7h-1.5V0zm-4.407 0h1.469v7h-1.469V0zm-4.437 0h1.5v7h-1.5V0zm-4.406 0h1.468v7h-1.468V0zm-4.438 0h1.5v7h-1.5V0zm-4.406 0h1.469v7h-1.469V0zm-4.438 0h1.5v7h-1.5V0zm-4.406 0h1.469v7h-1.469V0zm-4.437 0h1.5v7h-1.5V0zm-4.407 0h1.469v7h-1.469V0zM650 0h1.5v7H650V0zm-4.406 0h1.468v7h-1.468V0zm-4.438 0h1.5v7h-1.5V0zm-4.406 0h1.469v7h-1.469V0zm-4.438 0h1.5v7h-1.5V0zm-4.406 0h1.469v7h-1.469V0zm-4.437 0h1.5v7h-1.5V0zm-4.406 0h1.468v7h-1.468V0zm-4.438 0h1.5v7h-1.5V0zm-4.406 0h1.468v7h-1.468V0zm-4.438 0h1.5v7h-1.5V0zm-4.406 0h1.469v7h-1.469V0zm-4.438 0h1.5v7h-1.5V0zm-4.406 0H594v7h-1.469V0zm-4.437 0h1.5v7h-1.5V0zm-4.407 0h1.469v7h-1.469V0zm-4.437 0h1.5v7h-1.5V0zm-4.406 0h1.468v7h-1.468V0zm-4.438 0h1.5v7h-1.5V0zM566 0h1.469v7H566V0zm-4.438 0h1.5v7h-1.5V0zm-4.406 0h1.469v7h-1.469V0zm-4.437 0h1.5v7h-1.5V0zm-4.407 0h1.469v7h-1.469V0zm-4.437 0h1.5v7h-1.5V0zm-4.406 0h1.468v7h-1.468V0zm-4.438 0h1.5v7h-1.5V0zm-4.406 0h1.469v7h-1.469V0zm-4.438 0h1.5v7h-1.5V0zm-4.406 0h1.469v7h-1.469V0zm-4.437 0h1.5v7h-1.5V0zm-4.407 0h1.469v7h-1.469V0zM508.5 0h1.5v7h-1.5V0zm-4.406 0h1.468v7h-1.468V0zm-4.438 0h1.5v7h-1.5V0zm-4.406 0h1.469v7h-1.469V0zm-4.438 0h1.5v7h-1.5V0zm-4.406 0h1.469v7h-1.469V0zm-4.437 0h1.5v7h-1.5V0zm-4.407 0h1.469v7h-1.469V0zm-4.437 0h1.5v7h-1.5V0zm-4.406 0h1.468v7h-1.468V0zm-4.438 0h1.5v7h-1.5V0zm-4.406 0h1.469v7h-1.469V0zm-4.438 0h1.5v7h-1.5V0zm-4.406 0h1.469v7h-1.469V0zm-4.437 0h1.5v7h-1.5V0zm-4.407 0h1.469v7h-1.469V0zm-4.437 0h1.5v7h-1.5V0zm-4.406 0h1.468v7h-1.468V0zm-4.438 0h1.5v7h-1.5V0zM424.5 0h1.469v7H424.5V0zm-4.438 0h1.5v7h-1.5V0zm-4.406 0h1.469v7h-1.469V0zm-4.437 0h1.5v7h-1.5V0zm-4.407 0h1.469v7h-1.469V0zm-4.437 0h1.5v7h-1.5V0zm-4.406 0h1.468v7h-1.468V0zm-4.438 0h1.5v7h-1.5V0zm-4.406 0h1.469v7h-1.469V0zm-4.437 0h1.499v7h-1.499V0zm-4.407 0h1.469v7h-1.469V0zm-4.437 0h1.5v7h-1.5V0zm-4.407 0h1.469v7h-1.469V0zM367 0h1.5v7H367V0zm-4.406 0h1.468v7h-1.468V0zm-4.438 0h1.5v7h-1.5V0zm-4.406 0h1.469v7h-1.469V0zm-4.438 0h1.5v7h-1.5V0zm-4.406 0h1.469v7h-1.469V0zm-4.437 0h1.5v7h-1.5V0zm-4.407 0h1.469v7h-1.469V0zm-4.437 0h1.5v7h-1.5V0zm-4.406 0h1.468v7h-1.468V0zm-4.438 0h1.5v7h-1.5V0zm-4.406 0h1.469v7h-1.469V0zm-4.438 0h1.5v7h-1.5V0zm-4.406 0H311v7h-1.469V0zm-4.437 0h1.5v7h-1.5V0zm-4.407 0h1.469v7h-1.469V0zm-4.437 0h1.5v7h-1.5V0zm-4.406 0h1.468v7h-1.468V0zm-4.438 0h1.5v7h-1.5V0zM283 0h1.469v7H283V0zm-4.438 0h1.5v7h-1.5V0zm-4.406 0h1.469v7h-1.469V0zm-4.437 0h1.5v7h-1.5V0zm-4.407 0h1.469v7h-1.469V0zm-4.437 0h1.5v7h-1.5V0zm-4.406 0h1.468v7h-1.468V0zm-4.438 0h1.5v7h-1.5V0zm-4.406 0h1.469v7h-1.469V0zm-4.438 0h1.5v7h-1.5V0zm-4.406 0h1.469v7h-1.469V0zm-4.437 0h1.5v7h-1.5V0zm-4.407 0h1.469v7h-1.469V0zM225.5 0h1.5v7h-1.5V0zm-4.406 0h1.468v7h-1.468V0zm-4.438 0h1.5v7h-1.5V0zm-4.406 0h1.469v7h-1.469V0zm-4.438 0h1.5v7h-1.5V0zm-4.406 0h1.469v7h-1.469V0zm-4.437 0h1.5v7h-1.5V0zm-4.407 0h1.469v7h-1.469V0zm-4.437 0h1.5v7h-1.5V0zm-4.406 0h1.468v7h-1.468V0zm-4.438 0h1.5v7h-1.5V0zm-4.406 0h1.469v7h-1.469V0zm-4.438 0h1.5v7h-1.5V0zm-4.406 0h1.469v7h-1.469V0zm-4.437 0h1.5v7h-1.5V0zm-4.407 0h1.469v7h-1.469V0zm-4.437 0h1.5v7h-1.5V0zm-4.406 0h1.468v7h-1.468V0zm-4.438 0h1.5v7h-1.5V0zM141.5 0h1.469v7H141.5V0zm-4.438 0h1.5v7h-1.5V0zm-4.406 0h1.469v7h-1.469V0zm-4.437 0h1.5v7h-1.5V0zm-4.407 0h1.469v7h-1.469V0zm-4.437 0h1.5v7h-1.5V0zm-4.406 0h1.468v7h-1.468V0zm-4.438 0h1.5v7h-1.5V0zm-4.406 0h1.469v7h-1.469V0zm-4.438 0h1.5v7h-1.5V0zm-4.406 0h1.469v7h-1.469V0zm-4.437 0h1.5v7h-1.5V0zm-4.407 0h1.469v7h-1.469V0zM84 0h1.5v7H84V0zm-4.406 0h1.468v7h-1.468V0zm-4.438 0h1.5v7h-1.5V0zM70.75 0h1.469v7H70.75V0zm-4.438 0h1.5v7h-1.5V0zm-4.406 0h1.469v7h-1.469V0zm-4.437 0h1.5v7h-1.5V0zm-4.407 0h1.469v7h-1.469V0zm-4.437 0h1.5v7h-1.5V0zm-4.406 0h1.468v7h-1.468V0zm-4.438 0h1.5v7h-1.5V0zm-4.406 0h1.469v7h-1.469V0zm-4.438 0h1.5v7h-1.5V0zm-4.406 0H28v7h-1.469V0zm-4.437 0h1.5v7h-1.5V0zm-4.407 0h1.469v7h-1.469V0zM13.25 0h1.5v7h-1.5V0zM8.844 0h1.468v7H8.844V0zM4.406 0h1.5v7h-1.5V0zM0 0h1.469v7H0V0z"/></svg>