<svg xmlns="http://www.w3.org/2000/svg" width="1969.5" height="2823.5"><defs><filter id="Filter_0"><feFlood flood-color="#FFF" flood-opacity=".68" result="floodOut"/><feComposite operator="atop" in="floodOut" in2="SourceGraphic" result="compOut"/><feBlend in="compOut" in2="SourceGraphic"/></filter><filter id="Filter_1"><feFlood flood-color="#23014E" flood-opacity="1" result="floodOut"/><feComposite operator="atop" in="floodOut" in2="SourceGraphic" result="compOut"/><feBlend in="compOut" in2="SourceGraphic"/></filter><linearGradient id="PSgrad_0" x1="0%" x2="0%" y1="100%" y2="0%"><stop offset="0%" stop-color="#D7D7D7"/><stop offset="100%" stop-color="#FFF"/></linearGradient></defs><path fill="none" d="M18 0h1920v1H18V0z"/><g filter="url(#Filter_0)"><path fill-rule="evenodd" opacity=".49" fill="#29293B" d="M0 2057h1968v765H0v-765z"/></g><path fill="url(#PSgrad_0)" d="M0 2057h1968v765H0v-765z"/><g filter="url(#Filter_1)"><path stroke="#F379E0" stroke-width="3" fill="none" d="M122.953 11.988l19.784 14.135 23.517-6.318-7.328 23.364 13.141 20.529-24.314.303-15.395 19.008-7.698-23.176-22.655-8.783 19.555-14.628 1.393-24.434"/></g><path fill="none" stroke="#F379E0" stroke-width="3" d="M122.953 11.988l19.784 14.135 23.517-6.318-7.328 23.364 13.141 20.529-24.314.303-15.395 19.008-7.698-23.176-22.655-8.783 19.555-14.628 1.393-24.434"/><text font-family="Myriad Pro" transform="matrix(.86003 0 0 .8593 154.037 62.66)" font-size="55.859"><tspan font-family="SternTypeface" font-weight="bold" fill="#FFF">starhub</tspan></text></svg>