<svg xmlns="http://www.w3.org/2000/svg" viewBox="0 0 79.11 66.17"><g id="Слой_2" data-name="Слой 2"><g id="_103" data-name="103"><path d="M78.46 66.17H.65a.65.65 0 01-.65-.65V.65A.65.65 0 01.65 0h77.81a.65.65 0 01.65.65v64.87a.65.65 0 01-.65.65zM1.3 64.87h76.51V1.3H1.3z"/><path d="M78.46 66.17H44a.65.65 0 01-.56-.33l-.26-.46a.65.65 0 01.16-.83l5-4a17.29 17.29 0 01-.78-2.92l-6.33-.94a.65.65 0 01-.55-.65V53a.65.65 0 01.55-.65l6.33-.94a18.28 18.28 0 01.78-2.92l-5-4a.64.64 0 01-.16-.83l1.76-3.06a.66.66 0 01.81-.28l6 2.34a20.39 20.39 0 012.13-2.13l-2.34-6a.64.64 0 01.28-.8L54.81 32a.64.64 0 01.83.16l4 5a19.11 19.11 0 012.91-.78l1-6.33a.65.65 0 01.64-.55h3.53a.64.64 0 01.64.55l1 6.33a19.56 19.56 0 012.92.78l4-5A.65.65 0 0177 32l1.79 1a.64.64 0 01.33.57v3.94a.69.69 0 010 .24L78 40.54c.34.3.65.58.93.85a.63.63 0 01.2.47v23.66a.65.65 0 01-.67.65zM45 64.87h32.81V42.14c-.3-.29-.64-.58-1-.9a.64.64 0 01-.19-.74l1.21-3.07V34l-1-.57-3.93 4.94a.63.63 0 01-.74.2 18.55 18.55 0 00-3.57-1 .64.64 0 01-.54-.54l-.94-6.24h-2.42l-.94 6.24a.64.64 0 01-.54.54 18.25 18.25 0 00-3.56 1 .62.62 0 01-.74-.2L55 33.42l-2.09 1.21 2.31 5.87a.63.63 0 01-.19.74 18.46 18.46 0 00-2.61 2.62.65.65 0 01-.75.19l-5.87-2.3-1.21 2.09 4.93 3.93a.65.65 0 01.21.74 17.31 17.31 0 00-1 3.57.66.66 0 01-.55.54l-6.18.93v1.94l6.24.94a.66.66 0 01.55.54 17.57 17.57 0 001 3.58.64.64 0 01-.21.73zm33.46-50.42H.65a.65.65 0 110-1.3h77.81a.65.65 0 010 1.3zM8.51 9.94a2.86 2.86 0 112.86-2.85 2.87 2.87 0 01-2.86 2.85zm0-4.42a1.56 1.56 0 101.56 1.57 1.56 1.56 0 00-1.56-1.57zm9.6 4.42A2.86 2.86 0 1121 7.09a2.87 2.87 0 01-2.89 2.85zm0-4.42a1.56 1.56 0 101.56 1.57 1.55 1.55 0 00-1.56-1.57zm60.35 2.22H35.23a.66.66 0 010-1.31h43.23a.66.66 0 010 1.31zM69.1 24.68H10a.65.65 0 01-.64-.68v-4a.65.65 0 01.65-.65H69.1a.65.65 0 01.65.65v4a.65.65 0 01-.65.68zm-58.44-1.3h57.79v-2.75H10.66zm33.26 9.79H9.76a.65.65 0 010-1.3h34.16a.65.65 0 010 1.3zm-21.73 4.08H9.76a.65.65 0 010-1.3h12.43a.65.65 0 110 1.3zm14.95 4.1H9.76a.65.65 0 010-1.3h27.38a.65.65 0 110 1.3zm-7.34 4.09h-20a.66.66 0 010-1.31h20a.66.66 0 010 1.31zm7.2 4.08H9.76a.65.65 0 010-1.3H37a.65.65 0 010 1.3zm-7.83 4.1H9.76a.66.66 0 010-1.31h19.41a.66.66 0 010 1.31z"/></g></g></svg>