<svg xmlns="http://www.w3.org/2000/svg" viewBox="0 0 79.11 61.16"><g id="Слой_2" data-name="Слой 2"><g id="_103" data-name="103"><path d="M51.22 61.16H4.09A4.09 4.09 0 010 57.07V29.61a4.09 4.09 0 014.09-4.08h40a.65.65 0 010 1.3h-40a2.79 2.79 0 00-2.79 2.78v27.46a2.79 2.79 0 002.79 2.79h47.13a.65.65 0 110 1.3z"/><path d="M75 61.16H47.57a4.1 4.1 0 01-4.09-4.09v-53A4.09 4.09 0 0147.57 0H75a4.08 4.08 0 014.08 4.08v53A4.09 4.09 0 0175 61.16zM47.57 1.3a2.79 2.79 0 00-2.79 2.78v53a2.79 2.79 0 002.79 2.79H75a2.79 2.79 0 002.78-2.79v-53A2.79 2.79 0 0075 1.3z"/><path d="M61.3 57.84a3 3 0 113-3 3 3 0 01-3 3zm0-4.65a1.68 1.68 0 101.7 1.68 1.67 1.67 0 00-1.7-1.68zm14.07-3.5H47.22a.65.65 0 01-.65-.65V8.82a.65.65 0 01.65-.65h28.15a.65.65 0 01.65.65V49a.65.65 0 01-.65.69zm-27.5-1.3h26.85V9.47H47.87zM66.19 5.7H64.3a.65.65 0 110-1.3h1.89a.65.65 0 010 1.3zM63 5.7h-6.6a.65.65 0 110-1.3H63a.65.65 0 010 1.3zM44.13 58.07H8.82a.65.65 0 01-.65-.65V29.27a.65.65 0 01.65-.65h35.31a.65.65 0 01.65.65v28.15a.65.65 0 01-.65.65zm-34.66-1.3h34V29.92h-34zm-4.41-7.88a.65.65 0 01-.65-.65v-6.55a.65.65 0 011.3 0v6.55a.66.66 0 01-.65.65zm0-7.91a.65.65 0 01-.65-.65v-1.88a.65.65 0 111.3 0v1.88a.66.66 0 01-.65.67z"/><path d="M72 16.6H56.65a.65.65 0 110-1.3H72a.65.65 0 110 1.3zm-18.79 0h-2.65a.65.65 0 010-1.3h2.69a.65.65 0 110 1.3z"/><path d="M55 18.31A2.35 2.35 0 1157.3 16a2.36 2.36 0 01-2.3 2.31zm0-3.4a1 1 0 00-1.05 1A1.05 1.05 0 1056 16a1 1 0 00-1-1.09zm17 8.59h-9a.65.65 0 010-1.3h9a.65.65 0 110 1.3zm-12.44 0h-9a.65.65 0 110-1.3h9a.65.65 0 010 1.3z"/><path d="M61.3 25.2a2.35 2.35 0 112.35-2.35 2.35 2.35 0 01-2.35 2.35zm0-3.4a1.05 1.05 0 101.05 1.05 1 1 0 00-1.05-1.05z"/><path d="M61.3 46.6a10.06 10.06 0 1110.06-10.06A10.07 10.07 0 0161.3 46.6zm0-18.81a8.76 8.76 0 108.76 8.75 8.76 8.76 0 00-8.76-8.75z"/><path d="M61.3 46.6c-3.07 0-5.47-4.42-5.47-10.06s2.4-10 5.47-10 5.47 4.41 5.47 10.05S64.36 46.6 61.3 46.6zm0-18.81c-2.26 0-4.17 4-4.17 8.75S59 45.3 61.3 45.3s4.17-4 4.17-8.76-1.91-8.75-4.17-8.75z"/><path d="M70.71 37.19H51.89a.65.65 0 110-1.3h18.82a.65.65 0 010 1.3z"/><path d="M61.3 46.6a.65.65 0 01-.65-.65V27.13a.65.65 0 111.3 0V46a.65.65 0 01-.65.6z"/><path d="M61.33 33a24.62 24.62 0 01-7.87-1.32.65.65 0 11.41-1.23 22.76 22.76 0 0014.85 0 .65.65 0 01.42 1.23A24.08 24.08 0 0161.33 33zm-7.66 9.51a.65.65 0 01-.21-1.27 24 24 0 0115.67 0 .66.66 0 01.41.83.64.64 0 01-.82.4 22.89 22.89 0 00-14.85 0 .45.45 0 01-.2.04z"/></g></g></svg>