<svg xmlns="http://www.w3.org/2000/svg" viewBox="0 0 79.11 66.52"><g id="Слой_2" data-name="Слой 2"><g id="_103" data-name="103"><path d="M46 53.64H.65A.65.65 0 010 53V.65A.65.65 0 01.65 0h69.56a.65.65 0 01.65.65v39.49a.65.65 0 11-1.3 0V1.3H1.3v51H46a.65.65 0 010 1.3z"/><path d="M70.21 13.06H.65a.65.65 0 110-1.3h69.56a.65.65 0 010 1.3zM7.68 9a2.64 2.64 0 112.63-2.6A2.64 2.64 0 017.68 9zm0-4a1.33 1.33 0 100 2.66 1.33 1.33 0 100-2.66zm8.58 4a2.64 2.64 0 112.62-2.6A2.64 2.64 0 0116.26 9zm0-4a1.33 1.33 0 101.32 1.4 1.33 1.33 0 00-1.32-1.32zm53.95 2.05H31.57a.65.65 0 110-1.3h38.64a.65.65 0 010 1.3zm6.69 59.47H47.54a2.22 2.22 0 01-2.21-2.21V41.68a2.2 2.2 0 012.21-2.19H76.9a2.2 2.2 0 012.21 2.19v22.63a2.22 2.22 0 01-2.21 2.21zM47.54 40.79a.9.9 0 00-.91.89v22.63a.93.93 0 00.91.91H76.9a.93.93 0 00.91-.91V41.68a.9.9 0 00-.91-.89z"/><path d="M57.05 59.29a.61.61 0 01-.34-.1.63.63 0 01-.31-.55V47.36a.65.65 0 01.94-.58l11.29 5.63A.66.66 0 0169 53a.67.67 0 01-.36.59l-11.3 5.63a.59.59 0 01-.29.07zm.65-10.88v9.18L66.88 53zM32.49 21H7.76a.65.65 0 010-1.3h24.73a.65.65 0 110 1.3zm0 4.9H16.65a.65.65 0 010-1.3h15.84a.65.65 0 010 1.3zm-7.68 4.87h-17a.65.65 0 010-1.3h17a.65.65 0 010 1.3zm7.68 4.87H7.76a.65.65 0 010-1.3h24.73a.65.65 0 010 1.3zM31 30.77h-4.48a.65.65 0 010-1.3H31a.65.65 0 110 1.3zM13.94 25.9H9.5a.65.65 0 010-1.3h4.44a.65.65 0 110 1.3z"/></g></g></svg>