<svg 
 xmlns="http://www.w3.org/2000/svg"
 xmlns:xlink="http://www.w3.org/1999/xlink"
 width="1726px" height="7px">
<path fill-rule="evenodd"  fill="rgb(255, 255, 255)"
 d="M1724.531,7.000 L1724.531,-0.000 L1726.000,-0.000 L1726.000,7.000 L1724.531,7.000 ZM1720.094,-0.000 L1721.594,-0.000 L1721.594,7.000 L1720.094,7.000 L1720.094,-0.000 ZM1715.687,-0.000 L1717.156,-0.000 L1717.156,7.000 L1715.687,7.000 L1715.687,-0.000 ZM1711.250,-0.000 L1712.750,-0.000 L1712.750,7.000 L1711.250,7.000 L1711.250,-0.000 ZM1706.844,-0.000 L1708.312,-0.000 L1708.312,7.000 L1706.844,7.000 L1706.844,-0.000 ZM1702.406,-0.000 L1703.906,-0.000 L1703.906,7.000 L1702.406,7.000 L1702.406,-0.000 ZM1698.000,-0.000 L1699.469,-0.000 L1699.469,7.000 L1698.000,7.000 L1698.000,-0.000 ZM1693.562,-0.000 L1695.062,-0.000 L1695.062,7.000 L1693.562,7.000 L1693.562,-0.000 ZM1689.156,-0.000 L1690.625,-0.000 L1690.625,7.000 L1689.156,7.000 L1689.156,-0.000 ZM1684.719,-0.000 L1686.219,-0.000 L1686.219,7.000 L1684.719,7.000 L1684.719,-0.000 ZM1680.312,-0.000 L1681.781,-0.000 L1681.781,7.000 L1680.312,7.000 L1680.312,-0.000 ZM1675.875,-0.000 L1677.375,-0.000 L1677.375,7.000 L1675.875,7.000 L1675.875,-0.000 ZM1671.469,-0.000 L1672.937,-0.000 L1672.937,7.000 L1671.469,7.000 L1671.469,-0.000 ZM1667.031,-0.000 L1668.531,-0.000 L1668.531,7.000 L1667.031,7.000 L1667.031,-0.000 ZM1662.625,-0.000 L1664.094,-0.000 L1664.094,7.000 L1662.625,7.000 L1662.625,-0.000 ZM1658.187,-0.000 L1659.687,-0.000 L1659.687,7.000 L1658.187,7.000 L1658.187,-0.000 ZM1653.781,-0.000 L1655.250,-0.000 L1655.250,7.000 L1653.781,7.000 L1653.781,-0.000 ZM1649.344,-0.000 L1650.844,-0.000 L1650.844,7.000 L1649.344,7.000 L1649.344,-0.000 ZM1644.937,-0.000 L1646.406,-0.000 L1646.406,7.000 L1644.937,7.000 L1644.937,-0.000 ZM1640.500,-0.000 L1642.000,-0.000 L1642.000,7.000 L1640.500,7.000 L1640.500,-0.000 ZM1636.094,-0.000 L1637.562,-0.000 L1637.562,7.000 L1636.094,7.000 L1636.094,-0.000 ZM1631.656,-0.000 L1633.156,-0.000 L1633.156,7.000 L1631.656,7.000 L1631.656,-0.000 ZM1627.250,-0.000 L1628.719,-0.000 L1628.719,7.000 L1627.250,7.000 L1627.250,-0.000 ZM1622.812,-0.000 L1624.312,-0.000 L1624.312,7.000 L1622.812,7.000 L1622.812,-0.000 ZM1618.406,-0.000 L1619.875,-0.000 L1619.875,7.000 L1618.406,7.000 L1618.406,-0.000 ZM1613.969,-0.000 L1615.469,-0.000 L1615.469,7.000 L1613.969,7.000 L1613.969,-0.000 ZM1609.562,-0.000 L1611.031,-0.000 L1611.031,7.000 L1609.562,7.000 L1609.562,-0.000 ZM1605.125,-0.000 L1606.625,-0.000 L1606.625,7.000 L1605.125,7.000 L1605.125,-0.000 ZM1600.719,-0.000 L1602.187,-0.000 L1602.187,7.000 L1600.719,7.000 L1600.719,-0.000 ZM1596.281,-0.000 L1597.781,-0.000 L1597.781,7.000 L1596.281,7.000 L1596.281,-0.000 ZM1591.875,-0.000 L1593.344,-0.000 L1593.344,7.000 L1591.875,7.000 L1591.875,-0.000 ZM1587.437,-0.000 L1588.937,-0.000 L1588.937,7.000 L1587.437,7.000 L1587.437,-0.000 ZM1583.031,-0.000 L1584.500,-0.000 L1584.500,7.000 L1583.031,7.000 L1583.031,-0.000 ZM1578.594,-0.000 L1580.094,-0.000 L1580.094,7.000 L1578.594,7.000 L1578.594,-0.000 ZM1574.187,-0.000 L1575.656,-0.000 L1575.656,7.000 L1574.187,7.000 L1574.187,-0.000 ZM1569.750,-0.000 L1571.250,-0.000 L1571.250,7.000 L1569.750,7.000 L1569.750,-0.000 ZM1565.344,-0.000 L1566.812,-0.000 L1566.812,7.000 L1565.344,7.000 L1565.344,-0.000 ZM1560.906,-0.000 L1562.406,-0.000 L1562.406,7.000 L1560.906,7.000 L1560.906,-0.000 ZM1556.500,-0.000 L1557.969,-0.000 L1557.969,7.000 L1556.500,7.000 L1556.500,-0.000 ZM1552.062,-0.000 L1553.562,-0.000 L1553.562,7.000 L1552.062,7.000 L1552.062,-0.000 ZM1547.656,-0.000 L1549.125,-0.000 L1549.125,7.000 L1547.656,7.000 L1547.656,-0.000 ZM1543.219,-0.000 L1544.719,-0.000 L1544.719,7.000 L1543.219,7.000 L1543.219,-0.000 ZM1538.812,-0.000 L1540.281,-0.000 L1540.281,7.000 L1538.812,7.000 L1538.812,-0.000 ZM1534.375,-0.000 L1535.875,-0.000 L1535.875,7.000 L1534.375,7.000 L1534.375,-0.000 ZM1529.969,-0.000 L1531.437,-0.000 L1531.437,7.000 L1529.969,7.000 L1529.969,-0.000 ZM1525.531,-0.000 L1527.031,-0.000 L1527.031,7.000 L1525.531,7.000 L1525.531,-0.000 ZM1521.125,-0.000 L1522.594,-0.000 L1522.594,7.000 L1521.125,7.000 L1521.125,-0.000 ZM1516.687,-0.000 L1518.187,-0.000 L1518.187,7.000 L1516.687,7.000 L1516.687,-0.000 ZM1512.281,-0.000 L1513.750,-0.000 L1513.750,7.000 L1512.281,7.000 L1512.281,-0.000 ZM1507.844,-0.000 L1509.344,-0.000 L1509.344,7.000 L1507.844,7.000 L1507.844,-0.000 ZM1503.437,-0.000 L1504.906,-0.000 L1504.906,7.000 L1503.437,7.000 L1503.437,-0.000 ZM1499.000,-0.000 L1500.500,-0.000 L1500.500,7.000 L1499.000,7.000 L1499.000,-0.000 ZM1494.594,-0.000 L1496.062,-0.000 L1496.062,7.000 L1494.594,7.000 L1494.594,-0.000 ZM1490.156,-0.000 L1491.656,-0.000 L1491.656,7.000 L1490.156,7.000 L1490.156,-0.000 ZM1485.750,-0.000 L1487.219,-0.000 L1487.219,7.000 L1485.750,7.000 L1485.750,-0.000 ZM1481.312,-0.000 L1482.812,-0.000 L1482.812,7.000 L1481.312,7.000 L1481.312,-0.000 ZM1476.906,-0.000 L1478.375,-0.000 L1478.375,7.000 L1476.906,7.000 L1476.906,-0.000 ZM1472.469,-0.000 L1473.969,-0.000 L1473.969,7.000 L1472.469,7.000 L1472.469,-0.000 ZM1468.062,-0.000 L1469.531,-0.000 L1469.531,7.000 L1468.062,7.000 L1468.062,-0.000 ZM1463.625,-0.000 L1465.125,-0.000 L1465.125,7.000 L1463.625,7.000 L1463.625,-0.000 ZM1459.219,-0.000 L1460.687,-0.000 L1460.687,7.000 L1459.219,7.000 L1459.219,-0.000 ZM1454.781,-0.000 L1456.281,-0.000 L1456.281,7.000 L1454.781,7.000 L1454.781,-0.000 ZM1450.375,-0.000 L1451.844,-0.000 L1451.844,7.000 L1450.375,7.000 L1450.375,-0.000 ZM1445.937,-0.000 L1447.437,-0.000 L1447.437,7.000 L1445.937,7.000 L1445.937,-0.000 ZM1441.531,-0.000 L1443.000,-0.000 L1443.000,7.000 L1441.531,7.000 L1441.531,-0.000 ZM1437.094,-0.000 L1438.594,-0.000 L1438.594,7.000 L1437.094,7.000 L1437.094,-0.000 ZM1432.687,-0.000 L1434.156,-0.000 L1434.156,7.000 L1432.687,7.000 L1432.687,-0.000 ZM1428.250,-0.000 L1429.750,-0.000 L1429.750,7.000 L1428.250,7.000 L1428.250,-0.000 ZM1423.844,-0.000 L1425.312,-0.000 L1425.312,7.000 L1423.844,7.000 L1423.844,-0.000 ZM1419.406,-0.000 L1420.906,-0.000 L1420.906,7.000 L1419.406,7.000 L1419.406,-0.000 ZM1415.000,-0.000 L1416.469,-0.000 L1416.469,7.000 L1415.000,7.000 L1415.000,-0.000 ZM1410.562,-0.000 L1412.062,-0.000 L1412.062,7.000 L1410.562,7.000 L1410.562,-0.000 ZM1406.156,-0.000 L1407.625,-0.000 L1407.625,7.000 L1406.156,7.000 L1406.156,-0.000 ZM1401.719,-0.000 L1403.219,-0.000 L1403.219,7.000 L1401.719,7.000 L1401.719,-0.000 ZM1397.312,-0.000 L1398.781,-0.000 L1398.781,7.000 L1397.312,7.000 L1397.312,-0.000 ZM1392.875,-0.000 L1394.375,-0.000 L1394.375,7.000 L1392.875,7.000 L1392.875,-0.000 ZM1388.469,-0.000 L1389.937,-0.000 L1389.937,7.000 L1388.469,7.000 L1388.469,-0.000 ZM1384.031,-0.000 L1385.531,-0.000 L1385.531,7.000 L1384.031,7.000 L1384.031,-0.000 ZM1379.625,-0.000 L1381.094,-0.000 L1381.094,7.000 L1379.625,7.000 L1379.625,-0.000 ZM1375.187,-0.000 L1376.687,-0.000 L1376.687,7.000 L1375.187,7.000 L1375.187,-0.000 ZM1370.781,-0.000 L1372.250,-0.000 L1372.250,7.000 L1370.781,7.000 L1370.781,-0.000 ZM1366.344,-0.000 L1367.844,-0.000 L1367.844,7.000 L1366.344,7.000 L1366.344,-0.000 ZM1361.937,-0.000 L1363.406,-0.000 L1363.406,7.000 L1361.937,7.000 L1361.937,-0.000 ZM1357.500,-0.000 L1359.000,-0.000 L1359.000,7.000 L1357.500,7.000 L1357.500,-0.000 ZM1353.094,-0.000 L1354.562,-0.000 L1354.562,7.000 L1353.094,7.000 L1353.094,-0.000 ZM1348.656,-0.000 L1350.156,-0.000 L1350.156,7.000 L1348.656,7.000 L1348.656,-0.000 ZM1344.250,-0.000 L1345.719,-0.000 L1345.719,7.000 L1344.250,7.000 L1344.250,-0.000 ZM1339.812,-0.000 L1341.312,-0.000 L1341.312,7.000 L1339.812,7.000 L1339.812,-0.000 ZM1335.406,-0.000 L1336.875,-0.000 L1336.875,7.000 L1335.406,7.000 L1335.406,-0.000 ZM1330.969,-0.000 L1332.469,-0.000 L1332.469,7.000 L1330.969,7.000 L1330.969,-0.000 ZM1326.562,-0.000 L1328.031,-0.000 L1328.031,7.000 L1326.562,7.000 L1326.562,-0.000 ZM1322.125,-0.000 L1323.625,-0.000 L1323.625,7.000 L1322.125,7.000 L1322.125,-0.000 ZM1317.719,-0.000 L1319.187,-0.000 L1319.187,7.000 L1317.719,7.000 L1317.719,-0.000 ZM1313.281,-0.000 L1314.781,-0.000 L1314.781,7.000 L1313.281,7.000 L1313.281,-0.000 ZM1308.875,-0.000 L1310.344,-0.000 L1310.344,7.000 L1308.875,7.000 L1308.875,-0.000 ZM1304.437,-0.000 L1305.937,-0.000 L1305.937,7.000 L1304.437,7.000 L1304.437,-0.000 ZM1300.031,-0.000 L1301.500,-0.000 L1301.500,7.000 L1300.031,7.000 L1300.031,-0.000 ZM1295.594,-0.000 L1297.094,-0.000 L1297.094,7.000 L1295.594,7.000 L1295.594,-0.000 ZM1291.187,-0.000 L1292.656,-0.000 L1292.656,7.000 L1291.187,7.000 L1291.187,-0.000 ZM1286.750,-0.000 L1288.250,-0.000 L1288.250,7.000 L1286.750,7.000 L1286.750,-0.000 ZM1282.344,-0.000 L1283.812,-0.000 L1283.812,7.000 L1282.344,7.000 L1282.344,-0.000 ZM1277.906,-0.000 L1279.406,-0.000 L1279.406,7.000 L1277.906,7.000 L1277.906,-0.000 ZM1273.500,-0.000 L1274.969,-0.000 L1274.969,7.000 L1273.500,7.000 L1273.500,-0.000 ZM1269.062,-0.000 L1270.562,-0.000 L1270.562,7.000 L1269.062,7.000 L1269.062,-0.000 ZM1264.656,-0.000 L1266.125,-0.000 L1266.125,7.000 L1264.656,7.000 L1264.656,-0.000 ZM1260.219,-0.000 L1261.719,-0.000 L1261.719,7.000 L1260.219,7.000 L1260.219,-0.000 ZM1255.812,-0.000 L1257.281,-0.000 L1257.281,7.000 L1255.812,7.000 L1255.812,-0.000 ZM1251.375,-0.000 L1252.875,-0.000 L1252.875,7.000 L1251.375,7.000 L1251.375,-0.000 ZM1246.969,-0.000 L1248.437,-0.000 L1248.437,7.000 L1246.969,7.000 L1246.969,-0.000 ZM1242.531,-0.000 L1244.031,-0.000 L1244.031,7.000 L1242.531,7.000 L1242.531,-0.000 ZM1238.125,-0.000 L1239.594,-0.000 L1239.594,7.000 L1238.125,7.000 L1238.125,-0.000 ZM1233.687,-0.000 L1235.187,-0.000 L1235.187,7.000 L1233.687,7.000 L1233.687,-0.000 ZM1229.281,-0.000 L1230.750,-0.000 L1230.750,7.000 L1229.281,7.000 L1229.281,-0.000 ZM1224.844,-0.000 L1226.344,-0.000 L1226.344,7.000 L1224.844,7.000 L1224.844,-0.000 ZM1220.437,-0.000 L1221.906,-0.000 L1221.906,7.000 L1220.437,7.000 L1220.437,-0.000 ZM1216.000,-0.000 L1217.500,-0.000 L1217.500,7.000 L1216.000,7.000 L1216.000,-0.000 ZM1211.594,-0.000 L1213.062,-0.000 L1213.062,7.000 L1211.594,7.000 L1211.594,-0.000 ZM1207.156,-0.000 L1208.656,-0.000 L1208.656,7.000 L1207.156,7.000 L1207.156,-0.000 ZM1202.750,-0.000 L1204.219,-0.000 L1204.219,7.000 L1202.750,7.000 L1202.750,-0.000 ZM1198.312,-0.000 L1199.812,-0.000 L1199.812,7.000 L1198.312,7.000 L1198.312,-0.000 ZM1193.906,-0.000 L1195.375,-0.000 L1195.375,7.000 L1193.906,7.000 L1193.906,-0.000 ZM1189.469,-0.000 L1190.969,-0.000 L1190.969,7.000 L1189.469,7.000 L1189.469,-0.000 ZM1185.062,-0.000 L1186.531,-0.000 L1186.531,7.000 L1185.062,7.000 L1185.062,-0.000 ZM1180.625,-0.000 L1182.125,-0.000 L1182.125,7.000 L1180.625,7.000 L1180.625,-0.000 ZM1176.219,-0.000 L1177.687,-0.000 L1177.687,7.000 L1176.219,7.000 L1176.219,-0.000 ZM1171.781,-0.000 L1173.281,-0.000 L1173.281,7.000 L1171.781,7.000 L1171.781,-0.000 ZM1167.375,-0.000 L1168.844,-0.000 L1168.844,7.000 L1167.375,7.000 L1167.375,-0.000 ZM1162.937,-0.000 L1164.437,-0.000 L1164.437,7.000 L1162.937,7.000 L1162.937,-0.000 ZM1158.531,-0.000 L1160.000,-0.000 L1160.000,7.000 L1158.531,7.000 L1158.531,-0.000 ZM1154.094,-0.000 L1155.594,-0.000 L1155.594,7.000 L1154.094,7.000 L1154.094,-0.000 ZM1149.688,-0.000 L1151.156,-0.000 L1151.156,7.000 L1149.688,7.000 L1149.688,-0.000 ZM1145.250,-0.000 L1146.750,-0.000 L1146.750,7.000 L1145.250,7.000 L1145.250,-0.000 ZM1140.844,-0.000 L1142.312,-0.000 L1142.312,7.000 L1140.844,7.000 L1140.844,-0.000 ZM1136.406,-0.000 L1137.906,-0.000 L1137.906,7.000 L1136.406,7.000 L1136.406,-0.000 ZM1132.000,-0.000 L1133.469,-0.000 L1133.469,7.000 L1132.000,7.000 L1132.000,-0.000 ZM1127.562,-0.000 L1129.063,-0.000 L1129.063,7.000 L1127.562,7.000 L1127.562,-0.000 ZM1123.156,-0.000 L1124.625,-0.000 L1124.625,7.000 L1123.156,7.000 L1123.156,-0.000 ZM1118.719,-0.000 L1120.219,-0.000 L1120.219,7.000 L1118.719,7.000 L1118.719,-0.000 ZM1114.312,-0.000 L1115.781,-0.000 L1115.781,7.000 L1114.312,7.000 L1114.312,-0.000 ZM1109.875,-0.000 L1111.375,-0.000 L1111.375,7.000 L1109.875,7.000 L1109.875,-0.000 ZM1105.469,-0.000 L1106.937,-0.000 L1106.937,7.000 L1105.469,7.000 L1105.469,-0.000 ZM1101.031,-0.000 L1102.531,-0.000 L1102.531,7.000 L1101.031,7.000 L1101.031,-0.000 ZM1096.625,-0.000 L1098.094,-0.000 L1098.094,7.000 L1096.625,7.000 L1096.625,-0.000 ZM1092.187,-0.000 L1093.687,-0.000 L1093.687,7.000 L1092.187,7.000 L1092.187,-0.000 ZM1087.781,-0.000 L1089.250,-0.000 L1089.250,7.000 L1087.781,7.000 L1087.781,-0.000 ZM1083.344,-0.000 L1084.844,-0.000 L1084.844,7.000 L1083.344,7.000 L1083.344,-0.000 ZM1078.937,-0.000 L1080.406,-0.000 L1080.406,7.000 L1078.937,7.000 L1078.937,-0.000 ZM1074.500,-0.000 L1076.000,-0.000 L1076.000,7.000 L1074.500,7.000 L1074.500,-0.000 ZM1070.094,-0.000 L1071.562,-0.000 L1071.562,7.000 L1070.094,7.000 L1070.094,-0.000 ZM1065.656,-0.000 L1067.156,-0.000 L1067.156,7.000 L1065.656,7.000 L1065.656,-0.000 ZM1061.250,-0.000 L1062.719,-0.000 L1062.719,7.000 L1061.250,7.000 L1061.250,-0.000 ZM1056.812,-0.000 L1058.312,-0.000 L1058.312,7.000 L1056.812,7.000 L1056.812,-0.000 ZM1052.406,-0.000 L1053.875,-0.000 L1053.875,7.000 L1052.406,7.000 L1052.406,-0.000 ZM1047.969,-0.000 L1049.469,-0.000 L1049.469,7.000 L1047.969,7.000 L1047.969,-0.000 ZM1043.562,-0.000 L1045.031,-0.000 L1045.031,7.000 L1043.562,7.000 L1043.562,-0.000 ZM1039.125,-0.000 L1040.625,-0.000 L1040.625,7.000 L1039.125,7.000 L1039.125,-0.000 ZM1034.719,-0.000 L1036.187,-0.000 L1036.187,7.000 L1034.719,7.000 L1034.719,-0.000 ZM1030.281,-0.000 L1031.781,-0.000 L1031.781,7.000 L1030.281,7.000 L1030.281,-0.000 ZM1025.875,-0.000 L1027.344,-0.000 L1027.344,7.000 L1025.875,7.000 L1025.875,-0.000 ZM1021.437,-0.000 L1022.937,-0.000 L1022.937,7.000 L1021.437,7.000 L1021.437,-0.000 ZM1017.031,-0.000 L1018.500,-0.000 L1018.500,7.000 L1017.031,7.000 L1017.031,-0.000 ZM1012.594,-0.000 L1014.094,-0.000 L1014.094,7.000 L1012.594,7.000 L1012.594,-0.000 ZM1008.187,-0.000 L1009.656,-0.000 L1009.656,7.000 L1008.187,7.000 L1008.187,-0.000 ZM1003.750,-0.000 L1005.250,-0.000 L1005.250,7.000 L1003.750,7.000 L1003.750,-0.000 ZM999.344,-0.000 L1000.812,-0.000 L1000.812,7.000 L999.344,7.000 L999.344,-0.000 ZM994.906,-0.000 L996.406,-0.000 L996.406,7.000 L994.906,7.000 L994.906,-0.000 ZM990.500,-0.000 L991.969,-0.000 L991.969,7.000 L990.500,7.000 L990.500,-0.000 ZM986.062,-0.000 L987.562,-0.000 L987.562,7.000 L986.062,7.000 L986.062,-0.000 ZM981.656,-0.000 L983.125,-0.000 L983.125,7.000 L981.656,7.000 L981.656,-0.000 ZM977.219,-0.000 L978.719,-0.000 L978.719,7.000 L977.219,7.000 L977.219,-0.000 ZM972.812,-0.000 L974.281,-0.000 L974.281,7.000 L972.812,7.000 L972.812,-0.000 ZM968.375,-0.000 L969.875,-0.000 L969.875,7.000 L968.375,7.000 L968.375,-0.000 ZM963.969,-0.000 L965.437,-0.000 L965.437,7.000 L963.969,7.000 L963.969,-0.000 ZM959.531,-0.000 L961.031,-0.000 L961.031,7.000 L959.531,7.000 L959.531,-0.000 ZM955.125,-0.000 L956.594,-0.000 L956.594,7.000 L955.125,7.000 L955.125,-0.000 ZM950.687,-0.000 L952.187,-0.000 L952.187,7.000 L950.687,7.000 L950.687,-0.000 ZM946.281,-0.000 L947.750,-0.000 L947.750,7.000 L946.281,7.000 L946.281,-0.000 ZM941.844,-0.000 L943.344,-0.000 L943.344,7.000 L941.844,7.000 L941.844,-0.000 ZM937.437,-0.000 L938.906,-0.000 L938.906,7.000 L937.437,7.000 L937.437,-0.000 ZM933.000,-0.000 L934.500,-0.000 L934.500,7.000 L933.000,7.000 L933.000,-0.000 ZM928.594,-0.000 L930.062,-0.000 L930.062,7.000 L928.594,7.000 L928.594,-0.000 ZM924.156,-0.000 L925.656,-0.000 L925.656,7.000 L924.156,7.000 L924.156,-0.000 ZM919.750,-0.000 L921.219,-0.000 L921.219,7.000 L919.750,7.000 L919.750,-0.000 ZM915.313,-0.000 L916.812,-0.000 L916.812,7.000 L915.313,7.000 L915.313,-0.000 ZM910.906,-0.000 L912.375,-0.000 L912.375,7.000 L910.906,7.000 L910.906,-0.000 ZM906.469,-0.000 L907.969,-0.000 L907.969,7.000 L906.469,7.000 L906.469,-0.000 ZM902.062,-0.000 L903.531,-0.000 L903.531,7.000 L902.062,7.000 L902.062,-0.000 ZM897.625,-0.000 L899.125,-0.000 L899.125,7.000 L897.625,7.000 L897.625,-0.000 ZM893.219,-0.000 L894.688,-0.000 L894.688,7.000 L893.219,7.000 L893.219,-0.000 ZM888.781,-0.000 L890.281,-0.000 L890.281,7.000 L888.781,7.000 L888.781,-0.000 ZM884.375,-0.000 L885.844,-0.000 L885.844,7.000 L884.375,7.000 L884.375,-0.000 ZM879.937,-0.000 L881.437,-0.000 L881.437,7.000 L879.937,7.000 L879.937,-0.000 ZM875.531,-0.000 L877.000,-0.000 L877.000,7.000 L875.531,7.000 L875.531,-0.000 ZM871.094,-0.000 L872.594,-0.000 L872.594,7.000 L871.094,7.000 L871.094,-0.000 ZM866.687,-0.000 L868.156,-0.000 L868.156,7.000 L866.687,7.000 L866.687,-0.000 ZM862.250,-0.000 L863.750,-0.000 L863.750,7.000 L862.250,7.000 L862.250,-0.000 ZM857.844,-0.000 L859.312,-0.000 L859.312,7.000 L857.844,7.000 L857.844,-0.000 ZM853.406,-0.000 L854.906,-0.000 L854.906,7.000 L853.406,7.000 L853.406,-0.000 ZM849.000,-0.000 L850.469,-0.000 L850.469,7.000 L849.000,7.000 L849.000,-0.000 ZM844.562,-0.000 L846.062,-0.000 L846.062,7.000 L844.562,7.000 L844.562,-0.000 ZM840.156,-0.000 L841.625,-0.000 L841.625,7.000 L840.156,7.000 L840.156,-0.000 ZM835.719,-0.000 L837.219,-0.000 L837.219,7.000 L835.719,7.000 L835.719,-0.000 ZM831.312,-0.000 L832.781,-0.000 L832.781,7.000 L831.312,7.000 L831.312,-0.000 ZM826.875,-0.000 L828.375,-0.000 L828.375,7.000 L826.875,7.000 L826.875,-0.000 ZM822.469,-0.000 L823.937,-0.000 L823.937,7.000 L822.469,7.000 L822.469,-0.000 ZM818.031,-0.000 L819.531,-0.000 L819.531,7.000 L818.031,7.000 L818.031,-0.000 ZM813.625,-0.000 L815.094,-0.000 L815.094,7.000 L813.625,7.000 L813.625,-0.000 ZM809.187,-0.000 L810.687,-0.000 L810.687,7.000 L809.187,7.000 L809.187,-0.000 ZM804.781,-0.000 L806.250,-0.000 L806.250,7.000 L804.781,7.000 L804.781,-0.000 ZM800.344,-0.000 L801.844,-0.000 L801.844,7.000 L800.344,7.000 L800.344,-0.000 ZM795.937,-0.000 L797.406,-0.000 L797.406,7.000 L795.937,7.000 L795.937,-0.000 ZM791.500,-0.000 L793.000,-0.000 L793.000,7.000 L791.500,7.000 L791.500,-0.000 ZM787.094,-0.000 L788.562,-0.000 L788.562,7.000 L787.094,7.000 L787.094,-0.000 ZM782.656,-0.000 L784.156,-0.000 L784.156,7.000 L782.656,7.000 L782.656,-0.000 ZM778.250,-0.000 L779.719,-0.000 L779.719,7.000 L778.250,7.000 L778.250,-0.000 ZM773.812,-0.000 L775.312,-0.000 L775.312,7.000 L773.812,7.000 L773.812,-0.000 ZM769.406,-0.000 L770.875,-0.000 L770.875,7.000 L769.406,7.000 L769.406,-0.000 ZM764.969,-0.000 L766.469,-0.000 L766.469,7.000 L764.969,7.000 L764.969,-0.000 ZM760.562,-0.000 L762.031,-0.000 L762.031,7.000 L760.562,7.000 L760.562,-0.000 ZM756.125,-0.000 L757.625,-0.000 L757.625,7.000 L756.125,7.000 L756.125,-0.000 ZM751.719,-0.000 L753.187,-0.000 L753.187,7.000 L751.719,7.000 L751.719,-0.000 ZM747.281,-0.000 L748.781,-0.000 L748.781,7.000 L747.281,7.000 L747.281,-0.000 ZM742.875,-0.000 L744.344,-0.000 L744.344,7.000 L742.875,7.000 L742.875,-0.000 ZM738.437,-0.000 L739.937,-0.000 L739.937,7.000 L738.437,7.000 L738.437,-0.000 ZM734.031,-0.000 L735.500,-0.000 L735.500,7.000 L734.031,7.000 L734.031,-0.000 ZM729.594,-0.000 L731.094,-0.000 L731.094,7.000 L729.594,7.000 L729.594,-0.000 ZM725.187,-0.000 L726.656,-0.000 L726.656,7.000 L725.187,7.000 L725.187,-0.000 ZM720.750,-0.000 L722.250,-0.000 L722.250,7.000 L720.750,7.000 L720.750,-0.000 ZM716.344,-0.000 L717.812,-0.000 L717.812,7.000 L716.344,7.000 L716.344,-0.000 ZM711.906,-0.000 L713.406,-0.000 L713.406,7.000 L711.906,7.000 L711.906,-0.000 ZM707.500,-0.000 L708.969,-0.000 L708.969,7.000 L707.500,7.000 L707.500,-0.000 ZM703.062,-0.000 L704.562,-0.000 L704.562,7.000 L703.062,7.000 L703.062,-0.000 ZM698.656,-0.000 L700.125,-0.000 L700.125,7.000 L698.656,7.000 L698.656,-0.000 ZM694.219,-0.000 L695.719,-0.000 L695.719,7.000 L694.219,7.000 L694.219,-0.000 ZM689.812,-0.000 L691.281,-0.000 L691.281,7.000 L689.812,7.000 L689.812,-0.000 ZM685.375,-0.000 L686.875,-0.000 L686.875,7.000 L685.375,7.000 L685.375,-0.000 ZM680.969,-0.000 L682.437,-0.000 L682.437,7.000 L680.969,7.000 L680.969,-0.000 ZM676.531,-0.000 L678.031,-0.000 L678.031,7.000 L676.531,7.000 L676.531,-0.000 ZM672.125,-0.000 L673.594,-0.000 L673.594,7.000 L672.125,7.000 L672.125,-0.000 ZM667.687,-0.000 L669.187,-0.000 L669.187,7.000 L667.687,7.000 L667.687,-0.000 ZM663.281,-0.000 L664.750,-0.000 L664.750,7.000 L663.281,7.000 L663.281,-0.000 ZM658.844,-0.000 L660.344,-0.000 L660.344,7.000 L658.844,7.000 L658.844,-0.000 ZM654.437,-0.000 L655.906,-0.000 L655.906,7.000 L654.437,7.000 L654.437,-0.000 ZM650.000,-0.000 L651.500,-0.000 L651.500,7.000 L650.000,7.000 L650.000,-0.000 ZM645.594,-0.000 L647.062,-0.000 L647.062,7.000 L645.594,7.000 L645.594,-0.000 ZM641.156,-0.000 L642.656,-0.000 L642.656,7.000 L641.156,7.000 L641.156,-0.000 ZM636.750,-0.000 L638.219,-0.000 L638.219,7.000 L636.750,7.000 L636.750,-0.000 ZM632.312,-0.000 L633.812,-0.000 L633.812,7.000 L632.312,7.000 L632.312,-0.000 ZM627.906,-0.000 L629.375,-0.000 L629.375,7.000 L627.906,7.000 L627.906,-0.000 ZM623.469,-0.000 L624.969,-0.000 L624.969,7.000 L623.469,7.000 L623.469,-0.000 ZM619.063,-0.000 L620.531,-0.000 L620.531,7.000 L619.063,7.000 L619.063,-0.000 ZM614.625,-0.000 L616.125,-0.000 L616.125,7.000 L614.625,7.000 L614.625,-0.000 ZM610.219,-0.000 L611.687,-0.000 L611.687,7.000 L610.219,7.000 L610.219,-0.000 ZM605.781,-0.000 L607.281,-0.000 L607.281,7.000 L605.781,7.000 L605.781,-0.000 ZM601.375,-0.000 L602.844,-0.000 L602.844,7.000 L601.375,7.000 L601.375,-0.000 ZM596.937,-0.000 L598.437,-0.000 L598.437,7.000 L596.937,7.000 L596.937,-0.000 ZM592.531,-0.000 L594.000,-0.000 L594.000,7.000 L592.531,7.000 L592.531,-0.000 ZM588.094,-0.000 L589.594,-0.000 L589.594,7.000 L588.094,7.000 L588.094,-0.000 ZM583.687,-0.000 L585.156,-0.000 L585.156,7.000 L583.687,7.000 L583.687,-0.000 ZM579.250,-0.000 L580.750,-0.000 L580.750,7.000 L579.250,7.000 L579.250,-0.000 ZM574.844,-0.000 L576.312,-0.000 L576.312,7.000 L574.844,7.000 L574.844,-0.000 ZM570.406,-0.000 L571.906,-0.000 L571.906,7.000 L570.406,7.000 L570.406,-0.000 ZM566.000,-0.000 L567.469,-0.000 L567.469,7.000 L566.000,7.000 L566.000,-0.000 ZM561.562,-0.000 L563.062,-0.000 L563.062,7.000 L561.562,7.000 L561.562,-0.000 ZM557.156,-0.000 L558.625,-0.000 L558.625,7.000 L557.156,7.000 L557.156,-0.000 ZM552.719,-0.000 L554.219,-0.000 L554.219,7.000 L552.719,7.000 L552.719,-0.000 ZM548.312,-0.000 L549.781,-0.000 L549.781,7.000 L548.312,7.000 L548.312,-0.000 ZM543.875,-0.000 L545.375,-0.000 L545.375,7.000 L543.875,7.000 L543.875,-0.000 ZM539.469,-0.000 L540.937,-0.000 L540.937,7.000 L539.469,7.000 L539.469,-0.000 ZM535.031,-0.000 L536.531,-0.000 L536.531,7.000 L535.031,7.000 L535.031,-0.000 ZM530.625,-0.000 L532.094,-0.000 L532.094,7.000 L530.625,7.000 L530.625,-0.000 ZM526.187,-0.000 L527.687,-0.000 L527.687,7.000 L526.187,7.000 L526.187,-0.000 ZM521.781,-0.000 L523.250,-0.000 L523.250,7.000 L521.781,7.000 L521.781,-0.000 ZM517.344,-0.000 L518.844,-0.000 L518.844,7.000 L517.344,7.000 L517.344,-0.000 ZM512.937,-0.000 L514.406,-0.000 L514.406,7.000 L512.937,7.000 L512.937,-0.000 ZM508.500,-0.000 L510.000,-0.000 L510.000,7.000 L508.500,7.000 L508.500,-0.000 ZM504.094,-0.000 L505.562,-0.000 L505.562,7.000 L504.094,7.000 L504.094,-0.000 ZM499.656,-0.000 L501.156,-0.000 L501.156,7.000 L499.656,7.000 L499.656,-0.000 ZM495.250,-0.000 L496.719,-0.000 L496.719,7.000 L495.250,7.000 L495.250,-0.000 ZM490.812,-0.000 L492.312,-0.000 L492.312,7.000 L490.812,7.000 L490.812,-0.000 ZM486.406,-0.000 L487.875,-0.000 L487.875,7.000 L486.406,7.000 L486.406,-0.000 ZM481.969,-0.000 L483.469,-0.000 L483.469,7.000 L481.969,7.000 L481.969,-0.000 ZM477.562,-0.000 L479.031,-0.000 L479.031,7.000 L477.562,7.000 L477.562,-0.000 ZM473.125,-0.000 L474.625,-0.000 L474.625,7.000 L473.125,7.000 L473.125,-0.000 ZM468.719,-0.000 L470.187,-0.000 L470.187,7.000 L468.719,7.000 L468.719,-0.000 ZM464.281,-0.000 L465.781,-0.000 L465.781,7.000 L464.281,7.000 L464.281,-0.000 ZM459.875,-0.000 L461.344,-0.000 L461.344,7.000 L459.875,7.000 L459.875,-0.000 ZM455.437,-0.000 L456.937,-0.000 L456.937,7.000 L455.437,7.000 L455.437,-0.000 ZM451.031,-0.000 L452.500,-0.000 L452.500,7.000 L451.031,7.000 L451.031,-0.000 ZM446.594,-0.000 L448.094,-0.000 L448.094,7.000 L446.594,7.000 L446.594,-0.000 ZM442.187,-0.000 L443.656,-0.000 L443.656,7.000 L442.187,7.000 L442.187,-0.000 ZM437.750,-0.000 L439.250,-0.000 L439.250,7.000 L437.750,7.000 L437.750,-0.000 ZM433.344,-0.000 L434.812,-0.000 L434.812,7.000 L433.344,7.000 L433.344,-0.000 ZM428.906,-0.000 L430.406,-0.000 L430.406,7.000 L428.906,7.000 L428.906,-0.000 ZM424.500,-0.000 L425.969,-0.000 L425.969,7.000 L424.500,7.000 L424.500,-0.000 ZM420.062,-0.000 L421.562,-0.000 L421.562,7.000 L420.062,7.000 L420.062,-0.000 ZM415.656,-0.000 L417.125,-0.000 L417.125,7.000 L415.656,7.000 L415.656,-0.000 ZM411.219,-0.000 L412.719,-0.000 L412.719,7.000 L411.219,7.000 L411.219,-0.000 ZM406.812,-0.000 L408.281,-0.000 L408.281,7.000 L406.812,7.000 L406.812,-0.000 ZM402.375,-0.000 L403.875,-0.000 L403.875,7.000 L402.375,7.000 L402.375,-0.000 ZM397.969,-0.000 L399.437,-0.000 L399.437,7.000 L397.969,7.000 L397.969,-0.000 ZM393.531,-0.000 L395.031,-0.000 L395.031,7.000 L393.531,7.000 L393.531,-0.000 ZM389.125,-0.000 L390.594,-0.000 L390.594,7.000 L389.125,7.000 L389.125,-0.000 ZM384.688,-0.000 L386.187,-0.000 L386.187,7.000 L384.688,7.000 L384.688,-0.000 ZM380.281,-0.000 L381.750,-0.000 L381.750,7.000 L380.281,7.000 L380.281,-0.000 ZM375.844,-0.000 L377.344,-0.000 L377.344,7.000 L375.844,7.000 L375.844,-0.000 ZM371.437,-0.000 L372.906,-0.000 L372.906,7.000 L371.437,7.000 L371.437,-0.000 ZM367.000,-0.000 L368.500,-0.000 L368.500,7.000 L367.000,7.000 L367.000,-0.000 ZM362.594,-0.000 L364.062,-0.000 L364.062,7.000 L362.594,7.000 L362.594,-0.000 ZM358.156,-0.000 L359.656,-0.000 L359.656,7.000 L358.156,7.000 L358.156,-0.000 ZM353.750,-0.000 L355.219,-0.000 L355.219,7.000 L353.750,7.000 L353.750,-0.000 ZM349.312,-0.000 L350.812,-0.000 L350.812,7.000 L349.312,7.000 L349.312,-0.000 ZM344.906,-0.000 L346.375,-0.000 L346.375,7.000 L344.906,7.000 L344.906,-0.000 ZM340.469,-0.000 L341.969,-0.000 L341.969,7.000 L340.469,7.000 L340.469,-0.000 ZM336.062,-0.000 L337.531,-0.000 L337.531,7.000 L336.062,7.000 L336.062,-0.000 ZM331.625,-0.000 L333.125,-0.000 L333.125,7.000 L331.625,7.000 L331.625,-0.000 ZM327.219,-0.000 L328.687,-0.000 L328.687,7.000 L327.219,7.000 L327.219,-0.000 ZM322.781,-0.000 L324.281,-0.000 L324.281,7.000 L322.781,7.000 L322.781,-0.000 ZM318.375,-0.000 L319.844,-0.000 L319.844,7.000 L318.375,7.000 L318.375,-0.000 ZM313.937,-0.000 L315.437,-0.000 L315.437,7.000 L313.937,7.000 L313.937,-0.000 ZM309.531,-0.000 L311.000,-0.000 L311.000,7.000 L309.531,7.000 L309.531,-0.000 ZM305.094,-0.000 L306.594,-0.000 L306.594,7.000 L305.094,7.000 L305.094,-0.000 ZM300.687,-0.000 L302.156,-0.000 L302.156,7.000 L300.687,7.000 L300.687,-0.000 ZM296.250,-0.000 L297.750,-0.000 L297.750,7.000 L296.250,7.000 L296.250,-0.000 ZM291.844,-0.000 L293.312,-0.000 L293.312,7.000 L291.844,7.000 L291.844,-0.000 ZM287.406,-0.000 L288.906,-0.000 L288.906,7.000 L287.406,7.000 L287.406,-0.000 ZM283.000,-0.000 L284.469,-0.000 L284.469,7.000 L283.000,7.000 L283.000,-0.000 ZM278.562,-0.000 L280.062,-0.000 L280.062,7.000 L278.562,7.000 L278.562,-0.000 ZM274.156,-0.000 L275.625,-0.000 L275.625,7.000 L274.156,7.000 L274.156,-0.000 ZM269.719,-0.000 L271.219,-0.000 L271.219,7.000 L269.719,7.000 L269.719,-0.000 ZM265.312,-0.000 L266.781,-0.000 L266.781,7.000 L265.312,7.000 L265.312,-0.000 ZM260.875,-0.000 L262.375,-0.000 L262.375,7.000 L260.875,7.000 L260.875,-0.000 ZM256.469,-0.000 L257.937,-0.000 L257.937,7.000 L256.469,7.000 L256.469,-0.000 ZM252.031,-0.000 L253.531,-0.000 L253.531,7.000 L252.031,7.000 L252.031,-0.000 ZM247.625,-0.000 L249.094,-0.000 L249.094,7.000 L247.625,7.000 L247.625,-0.000 ZM243.187,-0.000 L244.687,-0.000 L244.687,7.000 L243.187,7.000 L243.187,-0.000 ZM238.781,-0.000 L240.250,-0.000 L240.250,7.000 L238.781,7.000 L238.781,-0.000 ZM234.344,-0.000 L235.844,-0.000 L235.844,7.000 L234.344,7.000 L234.344,-0.000 ZM229.937,-0.000 L231.406,-0.000 L231.406,7.000 L229.937,7.000 L229.937,-0.000 ZM225.500,-0.000 L227.000,-0.000 L227.000,7.000 L225.500,7.000 L225.500,-0.000 ZM221.094,-0.000 L222.562,-0.000 L222.562,7.000 L221.094,7.000 L221.094,-0.000 ZM216.656,-0.000 L218.156,-0.000 L218.156,7.000 L216.656,7.000 L216.656,-0.000 ZM212.250,-0.000 L213.719,-0.000 L213.719,7.000 L212.250,7.000 L212.250,-0.000 ZM207.812,-0.000 L209.312,-0.000 L209.312,7.000 L207.812,7.000 L207.812,-0.000 ZM203.406,-0.000 L204.875,-0.000 L204.875,7.000 L203.406,7.000 L203.406,-0.000 ZM198.969,-0.000 L200.469,-0.000 L200.469,7.000 L198.969,7.000 L198.969,-0.000 ZM194.562,-0.000 L196.031,-0.000 L196.031,7.000 L194.562,7.000 L194.562,-0.000 ZM190.125,-0.000 L191.625,-0.000 L191.625,7.000 L190.125,7.000 L190.125,-0.000 ZM185.719,-0.000 L187.187,-0.000 L187.187,7.000 L185.719,7.000 L185.719,-0.000 ZM181.281,-0.000 L182.781,-0.000 L182.781,7.000 L181.281,7.000 L181.281,-0.000 ZM176.875,-0.000 L178.344,-0.000 L178.344,7.000 L176.875,7.000 L176.875,-0.000 ZM172.437,-0.000 L173.937,-0.000 L173.937,7.000 L172.437,7.000 L172.437,-0.000 ZM168.031,-0.000 L169.500,-0.000 L169.500,7.000 L168.031,7.000 L168.031,-0.000 ZM163.594,-0.000 L165.094,-0.000 L165.094,7.000 L163.594,7.000 L163.594,-0.000 ZM159.187,-0.000 L160.656,-0.000 L160.656,7.000 L159.187,7.000 L159.187,-0.000 ZM154.750,-0.000 L156.250,-0.000 L156.250,7.000 L154.750,7.000 L154.750,-0.000 ZM150.344,-0.000 L151.812,-0.000 L151.812,7.000 L150.344,7.000 L150.344,-0.000 ZM145.906,-0.000 L147.406,-0.000 L147.406,7.000 L145.906,7.000 L145.906,-0.000 ZM141.500,-0.000 L142.969,-0.000 L142.969,7.000 L141.500,7.000 L141.500,-0.000 ZM137.062,-0.000 L138.562,-0.000 L138.562,7.000 L137.062,7.000 L137.062,-0.000 ZM132.656,-0.000 L134.125,-0.000 L134.125,7.000 L132.656,7.000 L132.656,-0.000 ZM128.219,-0.000 L129.719,-0.000 L129.719,7.000 L128.219,7.000 L128.219,-0.000 ZM123.812,-0.000 L125.281,-0.000 L125.281,7.000 L123.812,7.000 L123.812,-0.000 ZM119.375,-0.000 L120.875,-0.000 L120.875,7.000 L119.375,7.000 L119.375,-0.000 ZM114.969,-0.000 L116.437,-0.000 L116.437,7.000 L114.969,7.000 L114.969,-0.000 ZM110.531,-0.000 L112.031,-0.000 L112.031,7.000 L110.531,7.000 L110.531,-0.000 ZM106.125,-0.000 L107.594,-0.000 L107.594,7.000 L106.125,7.000 L106.125,-0.000 ZM101.687,-0.000 L103.187,-0.000 L103.187,7.000 L101.687,7.000 L101.687,-0.000 ZM97.281,-0.000 L98.750,-0.000 L98.750,7.000 L97.281,7.000 L97.281,-0.000 ZM92.844,-0.000 L94.344,-0.000 L94.344,7.000 L92.844,7.000 L92.844,-0.000 ZM88.437,-0.000 L89.906,-0.000 L89.906,7.000 L88.437,7.000 L88.437,-0.000 ZM84.000,-0.000 L85.500,-0.000 L85.500,7.000 L84.000,7.000 L84.000,-0.000 ZM79.594,-0.000 L81.062,-0.000 L81.062,7.000 L79.594,7.000 L79.594,-0.000 ZM75.156,-0.000 L76.656,-0.000 L76.656,7.000 L75.156,7.000 L75.156,-0.000 ZM70.750,-0.000 L72.219,-0.000 L72.219,7.000 L70.750,7.000 L70.750,-0.000 ZM66.312,-0.000 L67.812,-0.000 L67.812,7.000 L66.312,7.000 L66.312,-0.000 ZM61.906,-0.000 L63.375,-0.000 L63.375,7.000 L61.906,7.000 L61.906,-0.000 ZM57.469,-0.000 L58.969,-0.000 L58.969,7.000 L57.469,7.000 L57.469,-0.000 ZM53.062,-0.000 L54.531,-0.000 L54.531,7.000 L53.062,7.000 L53.062,-0.000 ZM48.625,-0.000 L50.125,-0.000 L50.125,7.000 L48.625,7.000 L48.625,-0.000 ZM44.219,-0.000 L45.687,-0.000 L45.687,7.000 L44.219,7.000 L44.219,-0.000 ZM39.781,-0.000 L41.281,-0.000 L41.281,7.000 L39.781,7.000 L39.781,-0.000 ZM35.375,-0.000 L36.844,-0.000 L36.844,7.000 L35.375,7.000 L35.375,-0.000 ZM30.937,-0.000 L32.437,-0.000 L32.437,7.000 L30.937,7.000 L30.937,-0.000 ZM26.531,-0.000 L28.000,-0.000 L28.000,7.000 L26.531,7.000 L26.531,-0.000 ZM22.094,-0.000 L23.594,-0.000 L23.594,7.000 L22.094,7.000 L22.094,-0.000 ZM17.687,-0.000 L19.156,-0.000 L19.156,7.000 L17.687,7.000 L17.687,-0.000 ZM13.250,-0.000 L14.750,-0.000 L14.750,7.000 L13.250,7.000 L13.250,-0.000 ZM8.844,-0.000 L10.312,-0.000 L10.312,7.000 L8.844,7.000 L8.844,-0.000 ZM4.406,-0.000 L5.906,-0.000 L5.906,7.000 L4.406,7.000 L4.406,-0.000 ZM-0.000,-0.000 L1.469,-0.000 L1.469,7.000 L-0.000,7.000 L-0.000,-0.000 Z"/>
</svg>