<svg xmlns="http://www.w3.org/2000/svg" viewBox="0 0 79.11 61.16"><title>tools-7</title><g id="Слой_2" data-name="Слой 2"><g id="_103" data-name="103"><path d="M51.22,61.16H4.09A4.09,4.09,0,0,1,0,57.07V29.61a4.09,4.09,0,0,1,4.09-4.08h40a.65.65,0,0,1,0,1.3h-40A2.79,2.79,0,0,0,1.3,29.61V57.07a2.79,2.79,0,0,0,2.79,2.79H51.22a.65.65,0,1,1,0,1.3Z"/><path d="M75,61.16H47.57a4.1,4.1,0,0,1-4.09-4.09v-53A4.09,4.09,0,0,1,47.57,0H75a4.08,4.08,0,0,1,4.08,4.08v53A4.09,4.09,0,0,1,75,61.16ZM47.57,1.3a2.79,2.79,0,0,0-2.79,2.78v53a2.79,2.79,0,0,0,2.79,2.79H75a2.79,2.79,0,0,0,2.78-2.79v-53A2.79,2.79,0,0,0,75,1.3Z"/><path d="M61.3,57.84a3,3,0,1,1,3-3A3,3,0,0,1,61.3,57.84Zm0-4.65A1.68,1.68,0,1,0,63,54.87,1.67,1.67,0,0,0,61.3,53.19Z"/><path d="M75.37,49.69H47.22a.65.65,0,0,1-.65-.65V8.82a.65.65,0,0,1,.65-.65H75.37a.65.65,0,0,1,.65.65V49A.65.65,0,0,1,75.37,49.69Zm-27.5-1.3H74.72V9.47H47.87Z"/><path d="M66.19,5.7H64.3a.65.65,0,1,1,0-1.3h1.89a.65.65,0,0,1,0,1.3ZM63,5.7H56.4a.65.65,0,1,1,0-1.3H63a.65.65,0,0,1,0,1.3Z"/><path d="M44.13,58.07H8.82a.65.65,0,0,1-.65-.65V29.27a.65.65,0,0,1,.65-.65H44.13a.65.65,0,0,1,.65.65V57.42A.65.65,0,0,1,44.13,58.07ZM9.47,56.77h34V29.92h-34Z"/><path d="M5.06,48.89a.65.65,0,0,1-.65-.65V41.69a.65.65,0,0,1,1.3,0v6.55A.66.66,0,0,1,5.06,48.89Zm0-7.91a.65.65,0,0,1-.65-.65V38.45a.65.65,0,1,1,1.3,0v1.88A.66.66,0,0,1,5.06,41Z"/><path d="M72,16.6H56.65a.65.65,0,1,1,0-1.3H72a.65.65,0,1,1,0,1.3Zm-18.79,0H50.56a.65.65,0,0,1,0-1.3h2.69a.65.65,0,1,1,0,1.3Z"/><path d="M55,18.31A2.35,2.35,0,1,1,57.3,16,2.36,2.36,0,0,1,55,18.31Zm0-3.4a1,1,0,0,0-1.05,1A1.05,1.05,0,1,0,56,16,1,1,0,0,0,55,14.91Z"/><path d="M72,23.5H63a.65.65,0,0,1,0-1.3h9a.65.65,0,1,1,0,1.3Zm-12.44,0h-9a.65.65,0,1,1,0-1.3h9a.65.65,0,0,1,0,1.3Z"/><path d="M61.3,25.2a2.35,2.35,0,1,1,2.35-2.35A2.35,2.35,0,0,1,61.3,25.2Zm0-3.4a1.05,1.05,0,1,0,1.05,1.05A1,1,0,0,0,61.3,21.8Z"/><path d="M61.3,46.6A10.06,10.06,0,1,1,71.36,36.54,10.07,10.07,0,0,1,61.3,46.6Zm0-18.81a8.76,8.76,0,1,0,8.76,8.75A8.76,8.76,0,0,0,61.3,27.79Z"/><path d="M61.3,46.6c-3.07,0-5.47-4.42-5.47-10.06s2.4-10,5.47-10,5.47,4.41,5.47,10.05S64.36,46.6,61.3,46.6Zm0-18.81c-2.26,0-4.17,4-4.17,8.75S59,45.3,61.3,45.3s4.17-4,4.17-8.76S63.56,27.79,61.3,27.79Z"/><path d="M70.71,37.19H51.89a.65.65,0,1,1,0-1.3H70.71a.65.65,0,0,1,0,1.3Z"/><path d="M61.3,46.6a.65.65,0,0,1-.65-.65V27.13a.65.65,0,1,1,1.3,0V46A.65.65,0,0,1,61.3,46.6Z"/><path d="M61.33,33a24.62,24.62,0,0,1-7.87-1.32.65.65,0,1,1,.41-1.23,22.76,22.76,0,0,0,14.85,0,.65.65,0,0,1,.42,1.23A24.08,24.08,0,0,1,61.33,33Z"/><path d="M53.67,42.51a.65.65,0,0,1-.21-1.27,24,24,0,0,1,15.67,0,.66.66,0,0,1,.41.83.64.64,0,0,1-.82.4,22.89,22.89,0,0,0-14.85,0A.45.45,0,0,1,53.67,42.51Z"/></g></g></svg>