<svg xmlns="http://www.w3.org/2000/svg" viewBox="0 0 79.11 66.17"><title>Ресурс 1</title><g id="Слой_2" data-name="Слой 2"><g id="_103" data-name="103"><path d="M78.46,66.17H.65A.65.65,0,0,1,0,65.52V.65A.65.65,0,0,1,.65,0H78.46a.65.65,0,0,1,.65.65V65.52A.65.65,0,0,1,78.46,66.17ZM1.3,64.87H77.81V1.3H1.3Z"/><path d="M78.46,66.17H44a.65.65,0,0,1-.56-.33l-.26-.46a.65.65,0,0,1,.16-.83l5-4a17.29,17.29,0,0,1-.78-2.92l-6.33-.94a.65.65,0,0,1-.55-.65V53a.65.65,0,0,1,.55-.65l6.33-.94a18.28,18.28,0,0,1,.78-2.92l-5-4a.64.64,0,0,1-.16-.83l1.76-3.06a.66.66,0,0,1,.81-.28l6,2.34a20.39,20.39,0,0,1,2.13-2.13l-2.34-6a.64.64,0,0,1,.28-.8L54.81,32a.64.64,0,0,1,.83.16l4,5a19.11,19.11,0,0,1,2.91-.78l1-6.33a.65.65,0,0,1,.64-.55h3.53a.64.64,0,0,1,.64.55l1,6.33a19.56,19.56,0,0,1,2.92.78l4-5A.65.65,0,0,1,77,32l1.79,1a.64.64,0,0,1,.33.57v3.94a.69.69,0,0,1,0,.24L78,40.54c.34.3.65.58.93.85a.63.63,0,0,1,.2.47V65.52A.65.65,0,0,1,78.46,66.17ZM45,64.87H77.81V42.14c-.3-.29-.64-.58-1-.9a.64.64,0,0,1-.19-.74l1.21-3.07V34l-1-.57-3.93,4.94a.63.63,0,0,1-.74.2,18.55,18.55,0,0,0-3.57-1,.64.64,0,0,1-.54-.54l-.94-6.24H64.69l-.94,6.24a.64.64,0,0,1-.54.54,18.25,18.25,0,0,0-3.56,1,.62.62,0,0,1-.74-.2L55,33.42l-2.09,1.21,2.31,5.87a.63.63,0,0,1-.19.74,18.46,18.46,0,0,0-2.61,2.62.65.65,0,0,1-.75.19l-5.87-2.3-1.21,2.09,4.93,3.93a.65.65,0,0,1,.21.74,17.31,17.31,0,0,0-1,3.57.66.66,0,0,1-.55.54L42,53.55v1.94l6.24.94a.66.66,0,0,1,.55.54,17.57,17.57,0,0,0,1,3.58.64.64,0,0,1-.21.73Z"/><path d="M78.46,14.45H.65a.65.65,0,1,1,0-1.3H78.46a.65.65,0,0,1,0,1.3Z"/><path d="M8.51,9.94a2.86,2.86,0,1,1,2.86-2.85A2.87,2.87,0,0,1,8.51,9.94Zm0-4.42a1.56,1.56,0,1,0,1.56,1.57A1.56,1.56,0,0,0,8.51,5.52Z"/><path d="M18.11,9.94A2.86,2.86,0,1,1,21,7.09,2.87,2.87,0,0,1,18.11,9.94Zm0-4.42a1.56,1.56,0,1,0,1.56,1.57A1.55,1.55,0,0,0,18.11,5.52Z"/><path d="M78.46,7.74H35.23a.66.66,0,0,1,0-1.31H78.46a.66.66,0,0,1,0,1.31Z"/><path d="M69.1,24.68H10A.65.65,0,0,1,9.36,24V20a.65.65,0,0,1,.65-.65H69.1a.65.65,0,0,1,.65.65V24A.65.65,0,0,1,69.1,24.68Zm-58.44-1.3H68.45V20.63H10.66Z"/><path d="M43.92,33.17H9.76a.65.65,0,0,1,0-1.3H43.92a.65.65,0,0,1,0,1.3Z"/><path d="M22.19,37.25H9.76a.65.65,0,0,1,0-1.3H22.19a.65.65,0,1,1,0,1.3Z"/><path d="M37.14,41.35H9.76a.65.65,0,0,1,0-1.3H37.14a.65.65,0,1,1,0,1.3Z"/><path d="M29.8,45.44h-20a.66.66,0,0,1,0-1.31h20a.66.66,0,0,1,0,1.31Z"/><path d="M37,49.52H9.76a.65.65,0,0,1,0-1.3H37a.65.65,0,0,1,0,1.3Z"/><path d="M29.17,53.62H9.76a.66.66,0,0,1,0-1.31H29.17a.66.66,0,0,1,0,1.31Z"/></g></g></svg>