<svg xmlns="http://www.w3.org/2000/svg" viewBox="0 0 79.11 66.52"><title>tools-3</title><g id="Слой_2" data-name="Слой 2"><g id="_103" data-name="103"><path d="M46,53.64H.65A.65.65,0,0,1,0,53V.65A.65.65,0,0,1,.65,0H70.21a.65.65,0,0,1,.65.65V40.14a.65.65,0,1,1-1.3,0V1.3H1.3v51H46a.65.65,0,0,1,0,1.3Z"/><path d="M70.21,13.06H.65a.65.65,0,1,1,0-1.3H70.21a.65.65,0,0,1,0,1.3Z"/><path d="M7.68,9A2.64,2.64,0,1,1,10.31,6.4,2.64,2.64,0,0,1,7.68,9Zm0-4a1.33,1.33,0,1,0,0,2.66,1.33,1.33,0,1,0,0-2.66Z"/><path d="M16.26,9A2.64,2.64,0,1,1,18.88,6.4,2.64,2.64,0,0,1,16.26,9Zm0-4A1.33,1.33,0,1,0,17.58,6.4,1.33,1.33,0,0,0,16.26,5.08Z"/><path d="M70.21,7.05H31.57a.65.65,0,1,1,0-1.3H70.21a.65.65,0,0,1,0,1.3Z"/><path d="M76.9,66.52H47.54a2.22,2.22,0,0,1-2.21-2.21V41.68a2.2,2.2,0,0,1,2.21-2.19H76.9a2.2,2.2,0,0,1,2.21,2.19V64.31A2.22,2.22,0,0,1,76.9,66.52ZM47.54,40.79a.9.9,0,0,0-.91.89V64.31a.93.93,0,0,0,.91.91H76.9a.93.93,0,0,0,.91-.91V41.68a.9.9,0,0,0-.91-.89Z"/><path d="M57.05,59.29a.61.61,0,0,1-.34-.1.63.63,0,0,1-.31-.55V47.36a.65.65,0,0,1,.94-.58l11.29,5.63A.66.66,0,0,1,69,53a.67.67,0,0,1-.36.59L57.34,59.22A.59.59,0,0,1,57.05,59.29Zm.65-10.88v9.18L66.88,53Z"/><path d="M32.49,21H7.76a.65.65,0,0,1,0-1.3H32.49a.65.65,0,1,1,0,1.3Z"/><path d="M32.49,25.9H16.65a.65.65,0,0,1,0-1.3H32.49a.65.65,0,0,1,0,1.3Z"/><path d="M24.81,30.77h-17a.65.65,0,0,1,0-1.3h17a.65.65,0,0,1,0,1.3Z"/><path d="M32.49,35.64H7.76a.65.65,0,0,1,0-1.3H32.49a.65.65,0,0,1,0,1.3Z"/><path d="M31,30.77H26.52a.65.65,0,0,1,0-1.3H31a.65.65,0,1,1,0,1.3Z"/><path d="M13.94,25.9H9.5a.65.65,0,0,1,0-1.3h4.44a.65.65,0,1,1,0,1.3Z"/></g></g></svg>